<svg height="480pt" viewBox="-5 0 480 480" width="480pt" xmlns="http://www.w3.org/2000/svg"><path d="m181.332031 448h-138.664062c-23.46875 0-42.667969-19.199219-42.667969-42.667969v-330.664062c0-23.46875 19.199219-42.667969 42.667969-42.667969h341.332031c23.464844 0 42.667969 19.199219 42.667969 42.667969v106.664062h-21.335938v-106.664062c0-11.734375-9.597656-21.335938-21.332031-21.335938h-341.332031c-11.734375 0-21.335938 9.601563-21.335938 21.335938v330.664062c0 11.734375 9.601563 21.335938 21.335938 21.335938h138.664062zm0 0"/><path d="m320 0h21.332031v85.332031h-21.332031zm0 0"/><path d="m85.332031 0h21.335938v85.332031h-21.335938zm0 0"/><path d="m10.667969 138.667969h405.332031v21.332031h-405.332031zm0 0"/><path d="m330.667969 480c-76.402344 0-138.667969-62.265625-138.667969-138.667969 0-76.398437 62.265625-138.664062 138.667969-138.664062 76.398437 0 138.664062 62.265625 138.664062 138.664062 0 76.402344-62.265625 138.667969-138.664062 138.667969zm0-256c-64.667969 0-117.335938 52.667969-117.335938 117.332031 0 64.667969 52.667969 117.335938 117.335938 117.335938 64.664062 0 117.332031-52.667969 117.332031-117.335938 0-64.664062-52.667969-117.332031-117.332031-117.332031zm0 0"/><path d="m382.933594 408.667969-62.933594-62.933594v-100.402344h21.332031v91.601563l56.667969 56.667968zm0 0"/></svg>