<?xml version="1.0" encoding="iso-8859-1"?>
<!-- Generator: Adobe Illustrator 19.0.0, SVG Export Plug-In . SVG Version: 6.00 Build 0)  -->
<svg version="1.1" id="Capa_1" xmlns="http://www.w3.org/2000/svg" xmlns:xlink="http://www.w3.org/1999/xlink" x="0px" y="0px"
	 viewBox="0 0 512 512" style="enable-background:new 0 0 512 512;" xml:space="preserve">
<g>
	<g>
		<path d="M466.402,12.524H466.4C466.4,5.618,460.783,0,453.876,0h-52.617c-4.15,0-7.515,3.364-7.515,7.515s3.365,7.515,7.515,7.515
			h50.112v19.037H60.627V15.029H356.19c4.15,0,7.515-3.364,7.515-7.515S360.34,0,356.191,0H58.122
			c-6.906,0-12.524,5.618-12.524,12.524v29.057c0,0.055,0.007,0.108,0.008,0.162c-0.001,0.054-0.008,0.107-0.008,0.162v29.057
			c0,6.906,5.618,12.524,12.524,12.524h245.457c-2.119,3.418-3.995,7.929-3.995,14.479c0,9.551,3.99,14.769,6.904,18.579
			c2.378,3.11,3.813,4.986,3.813,9.45c0,4.463-1.435,6.339-3.813,9.449c-2.914,3.809-6.904,9.027-6.904,18.578
			c0,9.551,3.991,14.769,6.904,18.579c2.378,3.109,3.813,4.985,3.813,9.447c0,4.464-1.435,6.341-3.813,9.45
			c-0.873,1.142-1.842,2.413-2.772,3.887h-73.434c-4.15,0-7.515,3.364-7.515,7.515s3.364,7.515,7.515,7.515h221.089v43.55h-8.619
			H160.452h-8.619v-43.55h32.027c4.15,0,7.515-3.364,7.515-7.515s-3.365-7.515-7.515-7.515h-34.532
			c-6.906,0-12.524,5.618-12.524,12.524v48.56c0,6.906,5.618,12.524,12.524,12.524h4.004l3.49,64.724c0,0.005,0,0.011,0,0.016
			l2.204,40.854l6.104,113.186C165.861,501.358,177.092,512,190.697,512h221.809c13.605,0,24.836-10.642,25.568-24.226
			l6.031-111.831l2.277-42.209c0-0.005,0-0.011,0-0.016l3.49-64.723h4.004c6.906,0,12.524-5.618,12.524-12.524v-48.56
			c0-6.906-5.618-12.524-12.524-12.524h-32.383c1.829-3.271,3.327-7.489,3.327-13.338c0-9.551-3.99-14.768-6.904-18.577
			c-2.378-3.11-3.813-4.986-3.813-9.449c0-4.463,1.435-6.339,3.813-9.449c2.914-3.809,6.904-9.027,6.904-18.578
			c0-9.551-3.99-14.769-6.904-18.579c-2.378-3.109-3.813-4.986-3.813-9.45s1.435-6.341,3.813-9.45
			c1.091-1.427,2.334-3.052,3.461-5.028h32.5c6.906,0,12.524-5.618,12.524-12.524v-29.06c0-0.055-0.007-0.108-0.008-0.162
			c0.001-0.054,0.008-0.107,0.008-0.162V12.524z M60.627,68.458v-0.001V49.42h239.906c1.346,5.015,3.874,8.343,5.955,11.065
			c2.097,2.742,3.459,4.528,3.752,7.973H60.627z M423.066,486.964c-0.301,5.611-4.94,10.007-10.56,10.007H190.697
			c-5.619,0-10.258-4.395-10.561-10.007l-2.84-52.657h248.609L423.066,486.964z M428.869,379.351l-2.154,39.927H176.488
			l-2.227-41.285l-2.003-37.15h258.69L428.869,379.351z M431.757,325.814h-260.31l-3.064-56.82h266.439L431.757,325.814z
			 M338.909,111.421c2.69,3.518,4.467,5.842,4.467,11.16c0,5.315-1.777,7.638-4.466,11.155c-3.367,4.403-7.559,9.883-7.559,20.29
			c0,10.403,4.19,15.882,7.557,20.284c2.69,3.518,4.468,5.841,4.468,11.161c0,4.67-1.372,7.03-3.529,9.919h-17.841
			c1.829-3.271,3.326-7.489,3.326-13.338c0-9.555-3.991-14.772-6.904-18.581c-2.378-3.11-3.813-4.986-3.813-9.449
			s1.435-6.339,3.813-9.449c2.914-3.809,6.904-9.027,6.904-18.578c0-9.551-3.99-14.769-6.904-18.579
			c-2.378-3.109-3.813-4.986-3.813-9.45c0-4.464,1.435-6.341,3.813-9.45c2.914-3.81,6.904-9.028,6.904-18.58
			s-3.99-14.769-6.904-18.579c-0.534-0.7-1.016-1.33-1.444-1.936h22.607c2.303,3.05,3.785,5.414,3.785,10.266
			c0,5.315-1.777,7.638-4.466,11.155c-3.367,4.403-7.559,9.883-7.559,20.29C331.35,101.538,335.542,107.017,338.909,111.421z
			 M373.557,174.308c2.69,3.518,4.468,5.841,4.468,11.161c0,4.67-1.372,7.03-3.529,9.919h-17.633c0.933-2.74,1.542-5.97,1.542-9.919
			c0-10.408-4.191-15.888-7.559-20.291c-2.689-3.517-4.466-5.839-4.466-11.154c0-5.318,1.777-7.642,4.467-11.158
			c3.367-4.403,7.558-9.882,7.558-20.286c0-10.408-4.191-15.887-7.558-20.29c-2.69-3.518-4.467-5.841-4.467-11.159
			s1.777-7.642,4.467-11.159c3.367-4.402,7.558-9.881,7.558-20.285c0-4.112-0.654-7.454-1.653-10.265h17.49
			c2.303,3.051,3.783,5.412,3.783,10.265c0,5.315-1.777,7.638-4.466,11.155c-3.367,4.402-7.559,9.881-7.559,20.288
			c0,10.406,4.191,15.885,7.558,20.289c2.69,3.518,4.467,5.842,4.467,11.16c0,5.315-1.777,7.638-4.466,11.155
			c-3.367,4.403-7.559,9.883-7.559,20.29C366,164.427,370.19,169.906,373.557,174.308z M405.975,116.543
			c2.378,3.11,3.813,4.986,3.813,9.45c0,4.463-1.435,6.339-3.813,9.449c-2.914,3.809-6.904,9.027-6.904,18.578
			c0,9.551,3.991,14.769,6.905,18.579c2.378,3.109,3.813,4.985,3.813,9.447c0,4.464-1.435,6.341-3.813,9.45
			c-0.872,1.14-1.838,2.414-2.766,3.887h-11.698c0.932-2.74,1.541-5.969,1.541-9.917c0-10.408-4.191-15.888-7.559-20.291
			c-2.689-3.517-4.466-5.839-4.466-11.154c0-5.318,1.777-7.642,4.467-11.158c3.367-4.403,7.558-9.882,7.558-20.286
			c0-10.406-4.191-15.885-7.558-20.289c-2.69-3.518-4.467-5.841-4.467-11.159s1.777-7.642,4.467-11.159
			c3.367-4.402,7.558-9.881,7.558-20.285c0-4.116-0.661-7.453-1.662-10.266h8.616c1.34,5.011,3.868,8.317,5.969,11.065
			c2.378,3.11,3.813,4.986,3.813,9.45s-1.435,6.341-3.814,9.451c-2.913,3.81-6.904,9.028-6.904,18.579
			C399.072,107.515,403.061,112.733,405.975,116.543z M451.371,68.457H424.78c-0.387-8.618-4.106-13.495-6.865-17.103
			c-0.532-0.695-1.01-1.324-1.439-1.935h34.895V68.457z"/>
	</g>
</g>
<g>
</g>
<g>
</g>
<g>
</g>
<g>
</g>
<g>
</g>
<g>
</g>
<g>
</g>
<g>
</g>
<g>
</g>
<g>
</g>
<g>
</g>
<g>
</g>
<g>
</g>
<g>
</g>
<g>
</g>
</svg>
