<?xml version="1.0" encoding="iso-8859-1"?>
<!-- Generator: Adobe Illustrator 19.0.0, SVG Export Plug-In . SVG Version: 6.00 Build 0)  -->
<svg version="1.1" id="Capa_1" xmlns="http://www.w3.org/2000/svg" xmlns:xlink="http://www.w3.org/1999/xlink" x="0px" y="0px"
	 viewBox="0 0 512 512" style="enable-background:new 0 0 512 512;" xml:space="preserve">
<g>
	<g>
		<path d="M284.076,134.29c-24.961,0-45.269,20.307-45.269,45.269c0,24.962,20.308,45.269,45.269,45.269
			s45.268-20.307,45.268-45.269C329.343,154.597,309.037,134.29,284.076,134.29z M284.076,209.814
			c-16.683,0-30.256-13.573-30.256-30.256s13.573-30.256,30.256-30.256s30.255,13.573,30.255,30.256
			S300.758,209.814,284.076,209.814z"/>
	</g>
</g>
<g>
	<g>
		<path d="M284.076,160.171c-10.69,0-19.387,8.697-19.387,19.387c0,10.689,8.697,19.386,19.387,19.386
			c10.69,0,19.387-8.697,19.387-19.386C303.462,168.869,294.765,160.171,284.076,160.171z M284.076,183.931
			c-2.412,0-4.374-1.962-4.374-4.373c0-2.412,1.962-4.374,4.374-4.374s4.374,1.962,4.374,4.374
			C288.449,181.969,286.487,183.931,284.076,183.931z"/>
	</g>
</g>
<g>
	<g>
		<path d="M498.023,229.499h-1.334c4.097-9.35,6.025-19.601,5.547-30.167c-0.84-18.555-9.433-35.303-22.563-47.058
			c-1.276-7.8-3.937-15.393-7.975-22.461c-4.374-7.657-10.111-14.214-16.849-19.492l-0.648-4.295
			c4.103-0.669,7.721-2.881,10.202-6.243c2.521-3.415,3.562-7.599,2.932-11.779l-1.973-13.088
			c-1.303-8.65-9.398-14.622-18.052-13.324l-44.082,6.643c-4.182,0.631-7.872,2.857-10.392,6.273
			c-2.521,3.415-3.562,7.599-2.932,11.779l1.973,13.087c0.01,0.067,0.029,0.131,0.04,0.198c-0.043,0.014-0.086,0.028-0.128,0.043
			c-7.057-6.337-15.176-11.57-24.163-15.391c-3.816-1.621-8.223,0.157-9.845,3.972c-1.621,3.815,0.156,8.223,3.971,9.845
			c5.479,2.329,10.56,5.303,15.198,8.797c-13.851,8.97-23.796,22.534-28.175,38.58c-4.715,17.281-2.42,35.363,6.464,50.917
			c8.885,15.554,23.294,26.715,40.575,31.431c2.788,0.761,5.598,1.333,8.414,1.731H226.523c7.931-30.795-6.975-62.341-34.292-76.362
			c4.408-1.595,9.086-2.638,13.974-2.991c6.085-0.437,10.925-5.169,11.508-11.251c1.839-19.168,17.77-33.623,37.059-33.623
			c6.546,0,12.982,1.725,18.614,4.985c4.484,2.597,10.196,2.094,14.213-1.256c9.549-7.96,21.031-13.326,33.204-15.518
			c4.081-0.734,6.793-4.637,6.058-8.718c-0.734-4.08-4.64-6.782-8.718-6.058c-14.165,2.55-27.552,8.65-38.826,17.673
			c-7.526-4.01-15.972-6.122-24.546-6.122c-9.44,0-18.302,2.48-25.958,6.838c-14.284-10.07-31.442-15.575-49.025-15.575
			c-0.307,0-0.612,0.013-0.919,0.016l-26.444-26.413c-6.188-6.181-16.254-6.176-22.437,0.013l-9.353,9.363
			c-6.136,6.144-6.175,16.107-0.122,22.3l-4.539,4.544c-2.859,2.861-4.432,6.672-4.429,10.73c0.002,3.519,1.191,6.848,3.371,9.534
			c-7.132,8.424-12.64,18.197-16.056,28.673c-6.622-1.863-13.486-2.669-20.441-2.409c-34.05,1.289-61.91,28.955-63.429,62.984
			c-0.446,10.009,1.314,19.729,5.067,28.64h-6.082C6.27,229.499,0,235.768,0,243.475v28.468
			c0,104.528,85.039,189.566,189.567,189.566h0.878c4.146,0,7.507-3.36,7.507-7.507c0-4.147-3.361-7.507-7.507-7.507h-0.878
			c-96.25,0-174.553-78.304-174.553-174.552v-27.432h481.974v27.432c0,96.249-78.304,174.552-174.553,174.552h-85.447
			c-4.146,0-7.507,3.36-7.507,7.507c0,4.147,3.361,7.507,7.507,7.507h85.447C426.961,461.509,512,376.47,512,271.943v-28.468
			C512,235.768,505.729,229.499,498.023,229.499z M126.595,101.955l9.843-9.855c2.93-2.933,2.928-7.686-0.005-10.614l-5.176-5.17
			c-0.321-0.321-0.321-0.885,0-1.206l9.352-9.362c0.161-0.16,0.381-0.24,0.604-0.24c0.221,0,0.442,0.08,0.603,0.24l31.541,31.505
			c0.321,0.32,0.321,0.884,0.001,1.205l-9.353,9.363c-0.197,0.197-0.436,0.239-0.603,0.239s-0.404-0.041-0.603-0.239l-5.175-5.169
			c-2.934-2.929-7.687-2.928-10.615,0.007l-9.843,9.854c-0.05,0.048-0.176,0.049-0.225,0l-10.345-10.333
			C126.543,102.127,126.542,102.009,126.595,101.955z M96.694,229.499H36.825c-4.884-8.372-7.281-17.984-6.836-27.972
			c1.172-26.285,22.695-47.654,48.998-48.65c0.663-0.025,1.323-0.038,1.983-0.038c5.353,0,10.614,0.823,15.671,2.454
			c3.218,1.036,6.771,0.728,9.749-0.85c3.001-1.59,5.178-4.261,6.131-7.522c2.679-9.165,7.181-17.465,13.024-24.573l0.787,0.786
			c2.958,2.954,6.839,4.43,10.721,4.43c3.888,0,7.776-1.48,10.734-4.442l4.54-4.544c2.974,2.901,6.898,4.495,11.074,4.495
			c0.003,0,0.006,0,0.009,0c4.245-0.002,8.228-1.651,11.216-4.644l9.353-9.363c3.28-3.284,4.799-7.657,4.597-11.964
			c9.876,1.256,19.389,4.6,27.864,9.797c-7.091,7.638-11.932,17.444-13.429,28.459c-11.361,1.176-21.839,5.162-30.771,11.224
			c-15.09-2.455-30.447,0.286-43.908,7.977c-15.554,8.884-26.716,23.293-31.432,40.574
			C93.719,206.787,93.854,218.568,96.694,229.499z M175.821,216.67c-1.037,3.8-3.492,6.969-6.913,8.923
			c-3.42,1.954-7.396,2.458-11.198,1.421c-3.799-1.037-6.968-3.491-8.923-6.912c-1.954-3.42-2.459-7.398-1.421-11.198
			s3.492-6.969,6.912-8.923c2.258-1.289,4.758-1.948,7.29-1.948c1.303,0,2.615,0.175,3.906,0.526c3.8,1.037,6.969,3.491,8.923,6.912
			C176.353,208.893,176.857,212.869,175.821,216.67z M211.803,226.489c-0.277,1.017-0.586,2.02-0.921,3.01H186.23
			c1.814-2.678,3.199-5.663,4.076-8.876c1.118-4.095,1.339-8.29,0.711-12.364l8.91-4.646c3.676-1.917,5.102-6.451,3.186-10.127
			c-1.918-3.676-6.45-5.103-10.127-3.186l-7.949,4.145c-3.923-5.035-9.338-8.659-15.606-10.369
			c-6.269-1.712-12.774-1.339-18.71,1.005l-4.742-7.609c-2.193-3.518-6.823-4.592-10.341-2.4c-3.519,2.193-4.593,6.823-2.4,10.341
			l5.315,8.529c-2.61,3.189-4.55,6.915-5.667,11.01c-1.118,4.095-1.339,8.29-0.711,12.363l-8.91,4.646
			c-2.844,1.482-4.333,4.531-3.977,7.538h-6.961c-3.238-9.498-3.774-20.025-0.94-30.414c3.66-13.412,12.324-24.595,24.395-31.491
			c7.97-4.553,16.795-6.876,25.732-6.876c4.598,0,9.228,0.616,13.784,1.859C202.98,170.133,219.358,198.804,211.803,226.489z
			 M405.465,83.081l44.083-6.643c0.451-0.069,0.902,0.268,0.969,0.716l1.973,13.087c0.042,0.276-0.067,0.493-0.165,0.627
			c-0.099,0.134-0.274,0.301-0.55,0.343l-7.232,1.09c-1.969,0.296-3.738,1.362-4.921,2.965c-1.183,1.602-1.68,3.607-1.383,5.576
			l2.076,13.773c0.011,0.069-0.064,0.17-0.133,0.181l-14.459,2.179c-0.074,0.003-0.17-0.065-0.18-0.133l-2.075-13.773
			c-0.296-1.969-1.363-3.738-2.965-4.921c-1.299-0.959-2.863-1.467-4.458-1.467c-0.372,0-0.746,0.027-1.119,0.084l-7.232,1.09
			c-0.278,0.033-0.493-0.067-0.627-0.165c-0.133-0.099-0.301-0.273-0.342-0.55l-1.973-13.088
			C404.683,83.602,405.017,83.148,405.465,83.081z M399.766,213.284c-13.411-3.659-24.595-12.324-31.49-24.394
			c-6.895-12.072-8.677-26.106-5.017-39.517c3.659-13.411,12.324-24.595,24.395-31.491c4.792-2.737,9.896-4.653,15.144-5.756
			c2.22,0.705,4.577,0.928,6.94,0.601l0.958,6.353c0.603,3.998,2.732,7.528,5.998,9.939c2.643,1.95,5.767,2.975,8.982,2.975
			c0.758,0,1.52-0.057,2.283-0.172l14.459-2.179c2.95-0.444,5.565-1.726,7.665-3.553c3.309,3.28,6.204,7.017,8.579,11.174
			c6.895,12.072,8.677,26.105,5.017,39.516c-3.66,13.412-12.324,24.595-24.395,31.491
			C427.213,215.164,413.179,216.945,399.766,213.284z M479.791,229.499h-56.908c8.287-1.176,16.36-3.918,23.847-8.195
			c15.554-8.884,26.716-23.293,31.432-40.574c0.515-1.89,0.932-3.789,1.281-5.694c4.574,7.355,7.384,15.886,7.795,24.976
			C487.716,210.571,485.103,220.722,479.791,229.499z"/>
	</g>
</g>
<g>
	<g>
		<path d="M454.986,143.775c-1.918-3.676-6.451-5.102-10.127-3.186l-7.963,4.152c-3.812-4.883-9.17-8.624-15.592-10.376
			c-6.423-1.753-12.937-1.252-18.701,1.018l-4.749-7.621c-2.193-3.519-6.823-4.593-10.341-2.4c-3.519,2.193-4.593,6.823-2.4,10.341
			l5.324,8.542c-2.57,3.135-4.543,6.839-5.677,10.996c-1.134,4.157-1.317,8.35-0.695,12.355l-8.925,4.653
			c-3.676,1.917-5.102,6.45-3.186,10.126c1.338,2.568,3.954,4.039,6.663,4.039c1.169,0,2.356-0.274,3.464-0.853l7.963-4.152
			c3.812,4.883,9.17,8.624,15.593,10.377c2.612,0.714,5.24,1.053,7.826,1.053c3.771,0,7.445-0.745,10.864-2.09l4.762,7.64
			c1.423,2.283,3.871,3.537,6.378,3.537c1.355,0,2.728-0.367,3.964-1.137c3.515-2.193,4.589-6.823,2.397-10.341l-5.322-8.538
			c2.57-3.135,4.54-6.843,5.674-11c1.134-4.157,1.317-8.349,0.696-12.355l8.926-4.654
			C455.476,151.985,456.903,147.451,454.986,143.775z M427.695,166.957c-2.141,7.846-10.265,12.487-18.109,10.345
			c-7.845-2.142-12.486-10.265-10.345-18.11c1.788-6.551,7.747-10.867,14.232-10.867c1.281,0,2.583,0.169,3.878,0.521
			C425.196,150.989,429.836,159.112,427.695,166.957z"/>
	</g>
</g>
<g>
</g>
<g>
</g>
<g>
</g>
<g>
</g>
<g>
</g>
<g>
</g>
<g>
</g>
<g>
</g>
<g>
</g>
<g>
</g>
<g>
</g>
<g>
</g>
<g>
</g>
<g>
</g>
<g>
</g>
</svg>
