<svg height="448pt" viewBox="0 0 448 448" width="448pt" xmlns="http://www.w3.org/2000/svg"><path d="m224 448c-123.464844 0-224-100.535156-224-224s100.535156-224 224-224 224 100.535156 224 224-100.535156 224-224 224zm0-426.667969c-111.734375 0-202.667969 90.933594-202.667969 202.667969s90.933594 202.667969 202.667969 202.667969 202.667969-90.933594 202.667969-202.667969-90.933594-202.667969-202.667969-202.667969zm0 0"/><path d="m224 239.066406-88.667969-88.53125 15.203125-15.203125 73.464844 73.601563 94.933594-94.933594 15.066406 15.066406zm0 0"/><path d="m341.332031 213.332031h53.335938v21.335938h-53.335938zm0 0"/><path d="m213.332031 341.332031h21.335938v53.335938h-21.335938zm0 0"/><path d="m53.332031 213.332031h53.335938v21.335938h-53.335938zm0 0"/><path d="m213.332031 53.332031h21.335938v53.335938h-21.335938zm0 0"/></svg>